<svg xmlns="http://www.w3.org/2000/svg" width="296.671" height="435.277" viewBox="0 0 78.494 115.167"><path d="M19.315 113.303a5.458 5.458 0 0 0-5.458 5.458 5.458 5.458 0 0 0 2.946 4.844L-6 123.409c-3.908 2.02 22.132 2.556 22.72 3.891l.757 66.096c.254 10.782-19.948 5.162-28.643-5.566l3.891-.216c-4.018-4.314-8.538-9.107-12.268-13.565 5.91 29.346 33.886 27.371 38.858 34.318 4.972-6.947 32.948-4.972 38.858-34.318-3.73 4.458-8.25 9.25-12.268 13.565l3.891.216c-8.694 10.728-28.897 16.348-28.643 5.566l.756-66.096c.59-1.335 26.63-1.87 22.721-3.891l-22.804.194a5.458 5.458 0 0 0 2.948-4.842 5.458 5.458 0 0 0-5.459-5.458zm0 2.5a2.959 2.959 0 0 1 2.96 2.958 2.959 2.959 0 0 1-2.96 2.96 2.959 2.959 0 0 1-2.959-2.96 2.959 2.959 0 0 1 2.96-2.959z" style="opacity:1;fill:#2b5df2;fill-opacity:.99487179;fill-rule:evenodd;stroke:#000;stroke-width:.79374999;stroke-linecap:butt;stroke-linejoin:miter;stroke-miterlimit:4;stroke-dasharray:none;stroke-dashoffset:0;stroke-opacity:1" transform="translate(19.932 -93.882)"/><path d="M8.146 123.52a7.733 7.733 0 0 0-.255-.669c-1.522-3.366-7.436-3.872-9.298-10.196-1.395-11.904 14.691-19.722 24.729-18.18 2.983.675 5.746 2.58 7.782 4.863 4.407 4.942 3.485 10.63.108 14.484-2.089 2.384-5.688 4.354-8.106 4.972-2.067.528-3.082-1.044-1.406-1.621 4.758-1.638 10.096-5.987 9.99-10.435-3.681-24.043-46.862 1.249-24.473 11.624 1.969 1.101 2.94 2.953 3.34 5.184zm2.644 2.733c.021 2.07-.245 4.305-.547 6.485-.184 1.33-2.698 2.766-2.378-.325.188-1.816.758-4.108.687-6.37z" style="fill:#2b5df2;fill-rule:evenodd;stroke:#000;stroke-width:.79374999;stroke-linecap:butt;stroke-linejoin:miter;stroke-miterlimit:4;stroke-dasharray:none;stroke-opacity:1" transform="translate(19.932 -93.882)"/><path d="M24.198 116.167c.343.61.521 1.246.649 1.891.115 1.095 2.06.483 1.865-.526-.19-.767-.606-1.74-.865-2.365-.333-.665-2.127.075-1.649 1z" style="fill:#2b5df2;fill-rule:evenodd;stroke:#000;stroke-width:.79374999;stroke-linecap:butt;stroke-linejoin:miter;stroke-miterlimit:4;stroke-dasharray:none;stroke-opacity:1" transform="translate(19.932 -93.882)"/></svg>