<svg width="650" height="750" xmlns="http://www.w3.org/2000/svg"><path d="M395.52 495.96c-.34 2.23 14.1 1.27 49.37 8.12 38.24 7.43 45.49 15.68 102.95 43.72 57.46 28.05 95.07-6.13 95.07-6.13s-68.04-7.44-95.36-61.35c-27.32-53.89-40.04-65.09-95.69-98.83 2.65-16.04 3.03-31.45 26.59-58.55 25.56-29.39 47.69-24.98 100.71-60.7 53.03-35.72 42.21-85.37 42.21-85.37s-40.46 55.18-100.82 51.88c-60.36-3.31-76.42 2.1-130.6 31.22-8.7-6.93-22.86-20.52-34.55-54.46-12.7-36.82 2.2-53.77-2.25-117.529-4.44-63.77-52.85-79.24-52.85-79.24s27.58 62.63-5.46 113.219c-33.04 50.6-19.7 120.97-31.11 140.8-57.86-35.7-73.92-41.11-134.28-37.8-60.348 3.29-100.818-51.89-100.818-51.89s-10.82 49.65 42.21 85.37c53.028 35.72 75.148 31.31 100.708 60.71 23.56 27.1 19.55 42.51 26.59 55.43-55.65 30.63-68.37 41.83-95.69 95.73-27.308 53.9-95.358 61.34-95.358 61.34s37.61 34.18 95.068 6.15c57.46-28.05 64.71-49.41 102.96-56.83 35.26-6.85 51.65 9.54 60.29 10.54-2.32 69.32 1.02 85.93 34.07 136.53 33.04 50.59 5.46 113.22 5.46 113.22s48.41-15.47 52.86-79.23c4.44-63.75-2.58-75.48 10.1-112.29 11.7-33.93 29.74-52.96 27.62-53.78z" style="display:inline;fill:#fcef3c;fill-rule:evenodd;stroke:#000;stroke-width:3.00001;stroke-linecap:butt;stroke-linejoin:miter;stroke-miterlimit:4;stroke-dasharray:none;stroke-opacity:1"/><path style="fill:none;fill-rule:evenodd;stroke:#000;stroke-width:3.00001;stroke-linecap:butt;stroke-linejoin:miter;stroke-miterlimit:4;stroke-dasharray:none;stroke-opacity:1" d="M7.091 531.65C115.43 546.19 117.33 456.42 197.43 430.94c50.25-7.97 102.19-7.74 137.39-51.82 31.84 69.22-17 142.98-17.9 157.32-3.09 49.12 48.79 111.3-10.51 203.25m336.5-198.02c-61.44 10.11-92.36-8.42-133.62-52.4-60.43-66.31-92.36-28.64-174.47-110.15-63.6 2-78.19-39.6-113.62-78.2-66.01-66.2-150.208-27.81-192.568-127.85m592.738 3.8c-18.7 53.7-60.98 74.65-114.16 84.52-88.79 15.15-127.38 105.97-172.39 117.73 13.62-56.34-42.23-148.26-14.7-227.38 21.92-53.669 13.53-97.879-19.82-142.999"/></svg>