<svg version="1.0" width="403" height="183" xmlns="http://www.w3.org/2000/svg"><path d="M4.735 179.26V90.151L201.5 3.921l196.76 86.23v89.109H359.5c-1.1-71.66-80.55-71.14-81.04 0h-25.21c-.1-109.939-103.23-111.079-104.45 0h-27.01c-.1-71.6-78.325-72.13-77.965 0z" style="fill:#fff;fill-opacity:1;fill-rule:evenodd;stroke:#000;stroke-width:3.94309;stroke-linecap:butt;stroke-linejoin:miter;stroke-miterlimit:4;stroke-dasharray:none;stroke-opacity:1"/><path style="fill:none;fill-rule:evenodd;stroke:#000;stroke-width:3.94309;stroke-linecap:butt;stroke-linejoin:miter;stroke-miterlimit:4;stroke-dasharray:none;stroke-opacity:1" d="m217.5 74.711-6 22.721m-26-22.721 6 22.721m-168.17-5.61 3.93 9.508m19.622-19.587 4.012 9.597m19.541-19.676 4.093 9.685m19.459-19.764 4.175 9.773m19.378-19.853 4.26 9.863m19.3-19.942 4.33 9.951m19.22-20.03 4.42 10.039m19.13-20.118 4.5 10.127m185.67 60.427-4.44 9.508m-18.9-19.587-4.65 9.597m-18.71-19.676-4.85 9.685m-18.5-19.764-5.05 9.773m-18.31-19.853-5.25 9.863m-18.1-19.942-5.45 9.951m-17.91-20.03-5.65 10.039m-17.7-20.118-5.85 10.127m-7.64 31.236v10.8M38.465 132.08H4.595m0 27.63h20.96m346.555 0h26.16m-29.94-13.81h29.93M4.735 99.764 201.25 15.508l197.01 84.832M4.735 110.46 201.25 27.544l197.01 83.196m0 10.41L201.25 39.581 4.595 121.15m357.455 10.93h36.21M260.1 104.45h97.99m-106.18 55.26h27.8m-30.49-13.81h37.01m-136.22 13.81H119.9m32.81-13.81c-11.52-.35-27.14 0-38.66 0m-109.455 0h25.248M111.4 76.821h67.78m43.99 0h67.43M144.85 63.006H257.5m-79.59-13.815h46.62M45.062 104.45h98.178m198.58 0v8.72M61.5 104.85v8.28m220.15-23.181v14.461m40.1-13.66-.13 13.66M121.43 90.776v13.684M81.47 90.776v13.684m180.11-28.17v14.46m40.09-9.738-.13 9.738M141.4 76.316v14.46m-40.09-9.738.13 9.738m140.24-13.685-.33-14.46m-80.04 0 .13 14.46m19.98-27.97v14.111m39.95-14.111v14.111M25.205 178.89c-1.22-77.68 83.095-94.527 106.175-33.07 3.19-97.94 138.8-95.185 137.52 0 18.89-64.524 107.67-43.56 105.33 32.29M82.81 125.67v-17m-20.592 23.76-10.021-14.16H11.47m90.56 13.31 9.31-13.31h24.47m-89.045 37.95-16.41-5.91m288.635-24.7V107.9m-19.98 23.68-12.95-13.31h-20.41m72.41 13.31 10-13.31h42.41m-35 37.95 14.64-5.91m-210.4-23.45-22-12.47m35.01-5.38-18.06-18.374H78.337M228.9 109.01l18.13-18.374h77.25m-81.92 36.224 21.02-12.47"/></svg>