<?xml version="1.0" encoding="UTF-8" standalone="no"?><svg height="231" viewBox="0 0 150 231" width="150" xmlns="http://www.w3.org/2000/svg"><g fill="#e20909" stroke="#000" stroke-width="2.611544" transform="matrix(1.1548298 0 0 1.1426938 346.38904 574.03019)"><path d="m18.898438-262.91406v29.11133l7.298828 10.25585-4.279297 89.56446-14.8437502 16.8457-5.5742188 53.775392h127l-5.57422-53.775392-14.84375-16.8457-4.2793-89.56446 7.29688-10.25585v-29.11133h-18.437501v11.95508h-18.441406v-11.95508h-18.439453v11.95508h-18.441406v-11.95508z" fill="#e20909" stroke-width="2.611686" transform="matrix(.9999452 0 0 .9999456 -299.99993 -238.14267)"/><g stroke-width="2.611544"><path d="m-247.01692-301.50009.30782-27.55335c.0662-5.78248 5.02507-11.20605 11.8509-11.20605 6.94888 0 11.80739 5.38148 11.82013 11.20605l.0616 27.55335z" fill="#fff"/><path d="m-240.01612-438.84243h10.02531v27.06744h-10.02531z" fill="#fff"/><path d="m-273.80359-461.67755h77.60003m-81.88035 89.55894h86.16067m-101.00322 16.84619h115.84577m-104.02184-116.66026h92.19612" fill="none"/></g></g></svg>